<svg width="40" xmlns="http://www.w3.org/2000/svg" height="40" id="screenshot-5c27dea1-a1e0-8094-8006-2c8d629b7a09" viewBox="0 0 40 40" xmlns:xlink="http://www.w3.org/1999/xlink" fill="none" version="1.1"><g id="shape-5c27dea1-a1e0-8094-8006-2c8d629b7a09" rx="0" ry="0"><g id="shape-5c27dea1-a1e0-8094-8006-2c8d141a5c27" width="24" height="24" rx="0" ry="0" style="fill: rgb(0, 0, 0);"><g id="shape-5c27dea1-a1e0-8094-8006-2c8d141a5c28"><g class="fills" id="fills-5c27dea1-a1e0-8094-8006-2c8d141a5c28"><rect width="40" height="40" x="0" transform="matrix(1.000000, 0.000000, 0.000000, 1.000000, 0.000000, 0.000000)" style="fill: rgb(129, 138, 249); fill-opacity: 1;" ry="0" fill="none" rx="0" y="0"/></g></g><g id="shape-5c27dea1-a1e0-8094-8006-2c8d141a5c29"><g class="fills" id="fills-5c27dea1-a1e0-8094-8006-2c8d141a5c29"><path d="M26.667,11.667C26.667,15.349,23.682,18.333,20.000,18.333C16.318,18.333,13.333,15.349,13.333,11.667C13.333,7.985,16.318,5.000,20.000,5.000C23.682,5.000,26.667,7.985,26.667,11.667ZZM23.333,11.667C23.333,13.508,21.841,15.000,20.000,15.000C18.159,15.000,16.667,13.508,16.667,11.667C16.667,9.826,18.159,8.333,20.000,8.333C21.841,8.333,23.333,9.826,23.333,11.667ZZ" fill-rule="evenodd" clip-rule="evenodd" style="fill: rgb(0, 0, 0); fill-opacity: 1;"/></g></g><g id="shape-5c27dea1-a1e0-8094-8006-2c8d141a5c2a"><g class="fills" id="fills-5c27dea1-a1e0-8094-8006-2c8d141a5c2a"><path d="M26.667,25.000C26.667,24.080,25.921,23.333,25.000,23.333L15.000,23.333C14.080,23.333,13.333,24.080,13.333,25.000L13.333,35.000L10.000,35.000L10.000,25.000C10.000,22.239,12.239,20.000,15.000,20.000L25.000,20.000C27.761,20.000,30.000,22.239,30.000,25.000L30.000,35.000L26.667,35.000L26.667,25.000ZZ" style="fill: rgb(0, 0, 0); fill-opacity: 1;"/></g></g></g></g></svg>